<svg xmlns="http://www.w3.org/2000/svg">
  <symbol viewBox="0 0 640 640" id="youtube">
    <path fill="currentColor"
      d="M581.7 188.1C575.5 164.4 556.9 145.8 533.4 139.5C490.9 128 320.1 128 320.1 128C320.1 128 149.3 128 106.7 139.5C83.2 145.8 64.7 164.4 58.4 188.1C47 231 47 320.4 47 320.4C47 320.4 47 409.8 58.4 452.7C64.7 476.3 83.2 494.2 106.7 500.5C149.3 512 320.1 512 320.1 512C320.1 512 490.9 512 533.5 500.5C557 494.2 575.5 476.3 581.8 452.7C593.2 409.8 593.2 320.4 593.2 320.4C593.2 320.4 593.2 231 581.8 188.1zM264.2 401.6L264.2 239.2L406.9 320.4L264.2 401.6z">
    </path>
  </symbol>
  <symbol viewBox="0 0 640 640" id="facebook">
    <path fill="currentColor"
      d="M240 363.3L240 576L356 576L356 363.3L442.5 363.3L460.5 265.5L356 265.5L356 230.9C356 179.2 376.3 159.4 428.7 159.4C445 159.4 458.1 159.8 465.7 160.6L465.7 71.9C451.4 68 416.4 64 396.2 64C289.3 64 240 114.5 240 223.4L240 265.5L174 265.5L174 363.3L240 363.3z">
    </path>
  </symbol>
  <symbol viewBox="0 0 640 640" id="instagram">
    <path fill="currentColor"
      d="M320.3 205C256.8 204.8 205.2 256.2 205 319.7C204.8 383.2 256.2 434.8 319.7 435C383.2 435.2 434.8 383.8 435 320.3C435.2 256.8 383.8 205.2 320.3 205zM319.7 245.4C360.9 245.2 394.4 278.5 394.6 319.7C394.8 360.9 361.5 394.4 320.3 394.6C279.1 394.8 245.6 361.5 245.4 320.3C245.2 279.1 278.5 245.6 319.7 245.4zM413.1 200.3C413.1 185.5 425.1 173.5 439.9 173.5C454.7 173.5 466.7 185.5 466.7 200.3C466.7 215.1 454.7 227.1 439.9 227.1C425.1 227.1 413.1 215.1 413.1 200.3zM542.8 227.5C541.1 191.6 532.9 159.8 506.6 133.6C480.4 107.4 448.6 99.2 412.7 97.4C375.7 95.3 264.8 95.3 227.8 97.4C192 99.1 160.2 107.3 133.9 133.5C107.6 159.7 99.5 191.5 97.7 227.4C95.6 264.4 95.6 375.3 97.7 412.3C99.4 448.2 107.6 480 133.9 506.2C160.2 532.4 191.9 540.6 227.8 542.4C264.8 544.5 375.7 544.5 412.7 542.4C448.6 540.7 480.4 532.5 506.6 506.2C532.8 480 541 448.2 542.8 412.3C544.9 375.3 544.9 264.5 542.8 227.5zM495 452C487.2 471.6 472.1 486.7 452.4 494.6C422.9 506.3 352.9 503.6 320.3 503.6C287.7 503.6 217.6 506.2 188.2 494.6C168.6 486.8 153.5 471.7 145.6 452C133.9 422.5 136.6 352.5 136.6 319.9C136.6 287.3 134 217.2 145.6 187.8C153.4 168.2 168.5 153.1 188.2 145.2C217.7 133.5 287.7 136.2 320.3 136.2C352.9 136.2 423 133.6 452.4 145.2C472 153 487.1 168.1 495 187.8C506.7 217.3 504 287.3 504 319.9C504 352.5 506.7 422.6 495 452z">
    </path>
  </symbol>
  <symbol viewBox="0 0 640 640" id="xtwitter">
    <path fill="currentColor"
      d="M453.2 112L523.8 112L369.6 288.2L551 528L409 528L297.7 382.6L170.5 528L99.8 528L264.7 339.5L90.8 112L236.4 112L336.9 244.9L453.2 112zM428.4 485.8L467.5 485.8L215.1 152L173.1 152L428.4 485.8z">
    </path>
  </symbol>
  <symbol viewBox="0 0 640 640" id="pinterest">
    <path fill="currentColor"
      d="M568 320C568 457 457 568 320 568C294.4 568 269.8 564.1 246.6 556.9C256.7 540.4 271.8 513.4 277.4 491.9C280.4 480.3 292.8 432.9 292.8 432.9C300.9 448.3 324.5 461.4 349.6 461.4C424.4 461.4 478.3 392.6 478.3 307.1C478.3 225.2 411.4 163.9 325.4 163.9C218.4 163.9 161.5 235.7 161.5 314C161.5 350.4 180.9 395.7 211.8 410.1C216.5 412.3 219 411.3 220.1 406.8C220.9 403.4 225.1 386.5 227 378.7C227.6 376.2 227.3 374 225.3 371.6C215.2 359.1 207 336.3 207 315C207 260.3 248.4 207.4 319 207.4C379.9 207.4 422.6 248.9 422.6 308.3C422.6 375.4 388.7 421.9 344.6 421.9C320.3 421.9 302 401.8 307.9 377.1C314.9 347.6 328.4 315.8 328.4 294.5C328.4 275.5 318.2 259.6 297 259.6C272.1 259.6 252.1 285.3 252.1 319.8C252.1 341.8 259.5 356.6 259.5 356.6C259.5 356.6 235 460.4 230.5 479.8C225.5 501.2 227.5 531.4 229.6 551C137.4 514.9 72 425.1 72 320C72 183 183 72 320 72C457 72 568 183 568 320z">
    </path>
  </symbol>
</svg>