<svg xmlns="http://www.w3.org/2000/svg">
  <symbol viewBox="0 0 640 640" id="bars">
    <path fill="currentColor"
      d="M96 160C96 142.3 110.3 128 128 128L512 128C529.7 128 544 142.3 544 160C544 177.7 529.7 192 512 192L128 192C110.3 192 96 177.7 96 160zM96 320C96 302.3 110.3 288 128 288L512 288C529.7 288 544 302.3 544 320C544 337.7 529.7 352 512 352L128 352C110.3 352 96 337.7 96 320zM544 480C544 497.7 529.7 512 512 512L128 512C110.3 512 96 497.7 96 480C96 462.3 110.3 448 128 448L512 448C529.7 448 544 462.3 544 480z">
    </path>
  </symbol>
  <symbol viewBox="0 0 640 640" id="close">
    <path fill="currentColor"
      d="M183.1 137.4C170.6 124.9 150.3 124.9 137.8 137.4C125.3 149.9 125.3 170.2 137.8 182.7L275.2 320L137.9 457.4C125.4 469.9 125.4 490.2 137.9 502.7C150.4 515.2 170.7 515.2 183.2 502.7L320.5 365.3L457.9 502.6C470.4 515.1 490.7 515.1 503.2 502.6C515.7 490.1 515.7 469.8 503.2 457.3L365.8 320L503.1 182.6C515.6 170.1 515.6 149.8 503.1 137.3C490.6 124.8 470.3 124.8 457.8 137.3L320.5 274.7L183.1 137.4z">
    </path>
  </symbol>
  <symbol viewBox="0 0 15 13" id="share">
    <path fill="currentColor"
      d="M15 6.495L8.766.014V3.88H7.441C3.33 3.88 0 7.039 0 10.936v2.049l.589-.612C2.59 10.294 5.422 9.11 8.39 9.11h.375v3.867L15 6.495z">
    </path>
  </symbol>
  <symbol viewBox="0 0 640 640" id="share-classic">
    <path fill="currentColor"
      d="M371.8 82.4C359.8 87.4 352 99 352 112L352 192L240 192C142.8 192 64 270.8 64 368C64 481.3 145.5 531.9 164.2 542.1C166.7 543.5 169.5 544 172.3 544C183.2 544 192 535.1 192 524.3C192 516.8 187.7 509.9 182.2 504.8C172.8 496 160 478.4 160 448.1C160 395.1 203 352.1 256 352.1L352 352.1L352 432.1C352 445 359.8 456.7 371.8 461.7C383.8 466.7 397.5 463.9 406.7 454.8L566.7 294.8C579.2 282.3 579.2 262 566.7 249.5L406.7 89.5C397.5 80.3 383.8 77.6 371.8 82.6z">
    </path>
  </symbol>
</svg>